<?xml version="1.0" standalone="no"?>
<!DOCTYPE svg PUBLIC "-//W3C//DTD SVG 20010904//EN"
 "http://www.w3.org/TR/2001/REC-SVG-20010904/DTD/svg10.dtd">
<svg version="1.0" xmlns="http://www.w3.org/2000/svg"
 width="500.000000pt" height="500.000000pt" viewBox="0 0 500.000000 500.000000"
 preserveAspectRatio="xMidYMid meet">

<g transform="translate(0.000000,500.000000) scale(0.100000,-0.100000)"
fill="#000000" stroke="none">
<path d="M3435 3954 c-158 -37 -260 -84 -409 -185 -150 -102 -141 -99 -237
-99 -105 0 -277 -30 -397 -69 -309 -101 -569 -325 -703 -606 -111 -232 -141
-433 -103 -679 l16 -102 -69 -110 c-145 -230 -249 -429 -283 -543 -18 -59 -22
-90 -18 -174 3 -90 7 -108 33 -156 93 -170 281 -138 576 99 35 28 91 77 124
108 33 31 72 67 86 80 l26 22 94 -49 c246 -129 515 -176 769 -136 109 18 239
56 290 86 19 11 26 17 15 13 -140 -49 -305 -66 -417 -44 -95 18 -210 66 -292
121 -69 46 -195 167 -231 223 -20 30 -58 -20 353 458 703 819 1006 1250 1063
1518 30 142 -36 220 -191 226 -41 2 -84 1 -95 -2z m109 -130 c40 -40 8 -158
-72 -266 -61 -83 -61 -83 -118 -41 -56 41 -174 98 -245 119 -27 8 -49 18 -49
23 0 12 176 107 271 146 95 39 185 47 213 19z m-429 -229 c64 -10 113 -26 170
-54 139 -69 157 -25 -182 -431 -297 -355 -750 -900 -865 -1038 -33 -41 -64
-70 -68 -65 -12 12 -56 159 -75 248 -36 175 -29 429 15 578 69 229 145 369
275 506 203 214 452 301 730 256z m-1435 -1587 c42 -90 136 -231 184 -277 20
-19 36 -41 36 -49 0 -16 -148 -190 -214 -250 -100 -92 -181 -125 -251 -102
-96 32 -88 195 22 430 50 108 171 320 182 320 4 0 23 -33 41 -72z"/>
<path d="M3242 1684 c-24 -17 -30 -62 -10 -82 18 -18 63 -14 82 7 22 24 3 39
-20 17 -8 -9 -19 -16 -23 -16 -16 0 -31 28 -25 44 7 18 39 22 49 6 9 -15 25
-12 25 5 0 13 -29 35 -47 35 -5 0 -19 -7 -31 -16z"/>
<path d="M3365 1657 c-10 -8 -16 -23 -13 -38 2 -19 9 -24 33 -24 25 0 31 4 33
27 4 34 -26 54 -53 35z m26 -30 c-1 -12 -15 -9 -19 4 -3 6 1 10 8 8 6 -3 11
-8 11 -12z"/>
<path d="M3170 1625 c0 -19 5 -35 10 -35 6 0 10 16 10 35 0 19 -4 35 -10 35
-5 0 -10 -16 -10 -35z"/>
<path d="M3440 1651 c0 -5 5 -11 11 -13 9 -3 9 -10 0 -26 -11 -21 -10 -22 24
-22 19 0 35 5 35 10 0 6 -5 10 -11 10 -7 0 -9 10 -7 25 5 22 2 25 -23 25 -16
0 -29 -4 -29 -9z"/>
<path d="M3530 1630 c0 -17 7 -34 18 -40 12 -8 13 -13 5 -16 -18 -8 -16 -24 1
-24 22 0 46 40 46 77 0 23 -5 33 -15 33 -8 0 -15 -9 -15 -20 0 -11 -4 -20 -10
-20 -5 0 -10 9 -10 20 0 11 -4 20 -10 20 -5 0 -10 -13 -10 -30z"/>
</g>
</svg>
