<?xml version="1.0" standalone="no"?>
<!DOCTYPE svg PUBLIC "-//W3C//DTD SVG 20010904//EN"
 "http://www.w3.org/TR/2001/REC-SVG-20010904/DTD/svg10.dtd">
<svg version="1.0" xmlns="http://www.w3.org/2000/svg"
 width="500.000000pt" height="500.000000pt" viewBox="0 0 500.000000 500.000000"
 preserveAspectRatio="xMidYMid meet">

<g transform="translate(0.000000,500.000000) scale(0.100000,-0.100000)"
fill="#000000" stroke="none">
<path d="M4280 4914 c-117 -14 -232 -39 -322 -70 -179 -62 -411 -194 -633
-359 l-70 -52 -185 -11 c-634 -39 -1122 -244 -1515 -637 -296 -295 -474 -639
-551 -1065 -27 -147 -25 -476 4 -637 12 -67 25 -128 27 -135 3 -7 -9 -37 -27
-66 -18 -29 -78 -125 -134 -215 -186 -298 -353 -612 -422 -792 -57 -148 -74
-381 -38 -515 36 -132 115 -241 206 -284 60 -28 209 -29 290 -2 145 50 289
132 464 265 117 89 316 263 406 355 35 36 71 66 78 66 8 0 26 -8 40 -19 44
-31 214 -117 303 -154 273 -112 521 -160 819 -159 306 0 593 57 795 157 100
49 195 120 195 146 0 16 -11 10 -57 -31 -104 -91 -466 -182 -668 -166 -315 24
-623 170 -860 410 -81 81 -195 219 -195 235 0 3 124 150 276 326 396 461 785
920 969 1145 661 805 1034 1363 1162 1737 34 100 37 117 38 224 0 110 -1 117
-28 157 -15 23 -46 56 -69 72 -70 51 -206 85 -298 74z m72 -242 c21 -20 23
-32 23 -115 -1 -81 -4 -99 -31 -157 -17 -36 -38 -71 -47 -79 -9 -7 -17 -18
-17 -23 0 -11 -75 -116 -123 -172 l-33 -39 -65 50 c-35 28 -91 67 -124 86 -79
46 -254 121 -332 142 -35 10 -63 21 -63 25 0 20 408 230 446 230 13 0 27 6 31
14 4 8 44 26 88 40 104 34 212 33 247 -2z m-762 -393 c124 -20 233 -50 309
-84 85 -40 200 -114 201 -130 0 -11 -94 -124 -538 -654 -112 -134 -210 -251
-218 -260 -32 -39 -200 -241 -238 -286 -24 -27 -112 -133 -197 -235 -309 -370
-615 -734 -641 -764 -15 -17 -27 -35 -28 -39 0 -14 -202 -252 -213 -252 -7 0
-28 47 -48 105 -229 672 -140 1391 244 1959 136 202 373 414 576 516 86 42
205 85 240 85 15 0 31 4 37 10 15 15 108 32 219 40 110 8 196 5 295 -11z
m-2387 -2779 c84 -163 179 -299 295 -425 29 -31 52 -60 52 -65 0 -13 -276
-335 -333 -389 -68 -63 -189 -153 -245 -182 -34 -17 -68 -24 -122 -27 -95 -4
-135 14 -170 78 -22 40 -25 56 -25 145 1 155 59 332 201 611 81 158 216 397
243 428 15 17 17 17 30 -20 8 -22 41 -91 74 -154z"/>
<path d="M3724 1035 c-4 -9 -2 -21 4 -27 15 -15 44 -1 40 19 -4 23 -36 29 -44
8z"/>
<path d="M3852 1035 c-68 -30 -76 -132 -14 -173 57 -37 152 -4 152 54 0 34
-30 39 -57 9 -13 -14 -29 -25 -36 -25 -34 0 -50 57 -22 80 15 12 55 5 55 -11
0 -5 14 -9 30 -9 37 0 41 27 7 58 -30 29 -75 35 -115 17z"/>
<path d="M3720 921 c0 -69 1 -71 25 -71 26 0 26 1 23 68 -3 61 -5 67 -25 70
-22 3 -23 0 -23 -67z"/>
<path d="M4039 972 c-48 -39 -17 -122 45 -122 50 0 76 24 76 70 0 29 -6 43
-22 54 -30 21 -71 20 -99 -2z m61 -58 c0 -16 -16 -19 -25 -4 -8 13 4 32 16 25
5 -4 9 -13 9 -21z"/>
<path d="M4177 983 c-4 -3 -7 -17 -7 -30 0 -16 6 -23 20 -23 23 0 24 -6 5 -40
-8 -14 -14 -28 -15 -32 0 -5 29 -8 65 -8 62 0 65 1 65 24 0 16 -7 26 -21 29
-16 4 -20 10 -14 24 4 10 10 28 12 41 5 21 2 22 -49 22 -30 0 -58 -3 -61 -7z"/>
<path d="M4332 929 c2 -50 7 -64 23 -73 11 -6 22 -12 24 -14 3 -1 -4 -8 -14
-16 -24 -17 -13 -46 18 -46 39 0 70 42 75 104 6 77 -3 108 -31 104 -18 -2 -23
-11 -25 -40 -2 -21 -7 -38 -12 -38 -5 0 -10 17 -12 38 -2 30 -7 38 -26 40 -22
3 -23 1 -20 -59z"/>
</g>
</svg>
